HIERARCHY
ROOT hip
{
	OFFSET 0.000000 0.000000 0.000000 
	CHANNELS 6 Xposition Yposition Zposition Xrotation Zrotation Yrotation
	JOINT abdomen
	{
		OFFSET 0.000000 0.000000 0.000000 
		CHANNELS 3 Xrotation Zrotation Yrotation
		JOINT chest
		{
			OFFSET 0.000000 4.862840 -1.823974 
			CHANNELS 3 Xrotation Zrotation Yrotation
			JOINT neck
			{
				OFFSET 0.000000 2.209834 -0.380644 
				CHANNELS 3 Xrotation Zrotation Yrotation
				JOINT head
				{
					OFFSET 0.000000 3.388650 0.513082 
					CHANNELS 3 Xrotation Zrotation Yrotation
					End Site
					{
						OFFSET 0.000000 10.033302 0.000000 
					}
				}
			}
			JOINT lCollar
			{
				OFFSET 0.580691 8.059053 0.760605 
				CHANNELS 3 Yrotation Zrotation Xrotation
				JOINT lShldr
				{
					OFFSET 6.222462 0.009832 -0.321848 
					CHANNELS 3 Zrotation Yrotation Xrotation
					JOINT lForeArm
					{
						OFFSET 10.220657 0.024782 0.183730 
						CHANNELS 3 Yrotation Zrotation Xrotation
						JOINT lHand
						{
							OFFSET 10.719483 0.309727 0.636712 
							CHANNELS 3 Zrotation Yrotation Xrotation
							End Site
							{
								OFFSET 10.033305 0.000000 0.000000 
							}
						}
					}
				}
			}
			JOINT rCollar
			{
				OFFSET -0.580691 8.059053 0.760605 
				CHANNELS 3 Yrotation Zrotation Xrotation
				JOINT rShldr
				{
					OFFSET -6.222462 0.009832 -0.321848 
					CHANNELS 3 Zrotation Yrotation Xrotation
					JOINT rForeArm
					{
						OFFSET -10.220657 0.024782 0.183730 
						CHANNELS 3 Yrotation Zrotation Xrotation
						JOINT rHand
						{
							OFFSET -10.719483 0.309727 0.636712 
							CHANNELS 3 Zrotation Yrotation Xrotation
							End Site
							{
								OFFSET -10.033305 0.000000 0.000000 
							}
						}
					}
				}
			}
		}
	}
	JOINT lThigh
	{
		OFFSET 4.361177 -6.202389 -1.775974 
		CHANNELS 3 Xrotation Zrotation Yrotation
		JOINT lShin
		{
			OFFSET -1.317052 -18.333157 1.143369 
			CHANNELS 3 Xrotation Zrotation Yrotation
			JOINT lFoot
			{
				OFFSET -0.636132 -16.703447 -0.302338 
				CHANNELS 3 Xrotation Yrotation Zrotation
				End Site
				{
					OFFSET 0.000000 -2.207327 5.819317 
				}
			}
		}
	}
	JOINT rThigh
	{
		OFFSET -4.361177 -6.202389 -1.775974 
		CHANNELS 3 Xrotation Zrotation Yrotation
		JOINT rShin
		{
			OFFSET 1.317052 -18.333157 1.143369 
			CHANNELS 3 Xrotation Zrotation Yrotation
			JOINT rFoot
			{
				OFFSET 0.636132 -16.703447 -0.302338 
				CHANNELS 3 Xrotation Yrotation Zrotation
				End Site
				{
					OFFSET 0.000000 -2.207327 5.819317 
				}
			}
		}
	}
}
MOTION
Frames: 14
Frame Time: 0.016667
20.655346 47.374947 -12.291324 0.234375 -0.634765 -28.515749 0.000000 0.000000 0.000000 13.173827 2.666016 -5.205078 11.054688 1.455078 -18.105221 -8.349609 5.390625 35.684513 -11.533204 -12.167970 12.119142 -35.380859 -38.916012 10.540742 -65.566406 -8.095703 -130.712891 -12.685547 -27.275391 165.503342 -0.058594 11.630860 12.031250 31.943361 -17.441406 16.061525 57.421871 6.757813 -30.556641 -20.976563 5.156250 42.744141 -8.981766 7.584854 9.315496 36.016048 -5.827246 -4.395971 -26.995329 32.501503 2.154834 -17.644117 -17.271698 -12.920947 56.320663 -0.807560 22.878771 -1.466923 -25.406448 15.096395 
20.495590 47.245464 -11.030489 0.097656 -0.576172 -27.998154 0.000000 0.000000 0.000000 13.378904 3.193360 -6.923828 10.830078 2.509765 -17.324219 -8.750000 4.804688 35.733242 -13.173827 -11.582032 12.355474 -34.277344 -43.066406 9.003905 -66.425781 -7.138672 -132.841797 -14.023438 -25.957033 168.007813 -1.806641 12.041017 12.216798 31.250000 -21.660156 15.885068 59.482422 5.595703 -26.553684 -20.488283 4.375000 38.583981 -7.523404 6.633578 8.852428 35.805061 -5.563852 -4.276333 -28.517056 32.913429 2.450823 -21.518255 -16.917624 -12.789216 57.319153 -0.027509 21.641819 -2.324511 -23.484150 11.894827 
20.301558 47.069698 -9.672297 -0.078125 -0.566406 -28.066406 0.000000 0.000000 0.000000 13.466799 3.828125 -8.475911 10.566407 3.554688 -16.229862 -9.101563 4.189453 35.947266 -14.736329 -10.703126 12.548828 -32.607422 -46.162109 6.699218 -67.500000 -6.093750 -134.941406 -15.107421 -24.794922 169.575989 -3.486328 12.324343 12.361087 30.751949 -24.687498 15.312499 60.976563 4.453125 -22.324219 -20.380859 3.652344 34.522110 -5.660890 5.659821 8.456040 35.241554 -5.387310 -3.695599 -29.957138 33.684547 2.647268 -24.734219 -16.013556 -12.334530 55.894501 1.135666 19.998568 -2.323334 -21.877607 9.442342 
20.107399 46.893799 -8.314070 -0.234375 -0.566406 -28.134768 0.000000 0.000000 0.000000 13.544922 4.492188 -10.029296 10.292969 4.599609 -15.136717 -9.443359 3.583984 36.152954 -16.269531 -9.843751 12.745810 -30.595707 -49.208981 4.082030 -68.535156 -5.019531 -137.011719 -16.171875 -23.583986 171.119141 -5.166015 12.587891 12.507638 30.273441 -27.734373 14.751317 62.558590 3.437500 -18.085938 -20.234375 2.949219 30.458982 -3.834782 4.711855 8.028830 34.768440 -5.206193 -3.104863 -31.466633 34.396702 2.835236 -27.934063 -15.103209 -11.845164 54.431976 2.303093 18.336887 -2.217268 -20.312912 7.003424 
19.873953 46.692009 -6.827435 -0.449219 -0.566406 -28.876951 0.000000 0.000000 0.000000 13.457032 5.185547 -11.239351 10.000001 5.664063 -13.875988 -9.648438 2.978516 36.455585 -17.666018 -9.013672 12.812499 -27.792969 -50.712891 0.900646 -69.970703 -3.964844 -139.160156 163.193375 -157.861328 -7.943134 -6.669922 13.056639 12.527092 29.677732 -29.052736 13.828124 63.476563 2.519531 -13.867188 -19.619141 1.982422 26.025393 -1.131281 3.538772 7.606223 33.197750 -5.270362 -1.836039 -32.712170 34.706940 2.925485 -29.901970 -13.867087 -11.051465 50.873779 3.653119 16.638853 -1.129965 -17.323534 6.868799 
19.640514 46.490223 -5.340688 -0.654297 -0.585938 -29.619184 0.000000 0.000000 0.000000 13.359374 5.878906 -12.460937 9.697266 6.738281 -12.655106 -9.843750 2.363281 36.758221 -19.042967 -8.193359 12.901783 -24.726564 -52.119141 -2.539062 -71.357422 -2.880860 -141.279297 162.597672 -159.316406 -7.044467 -8.193359 13.515624 12.546545 29.101561 -30.380859 12.900390 64.453125 1.679688 -9.658488 -18.955078 1.074219 21.572447 1.561404 2.411527 7.091774 31.620678 -5.287497 -0.571733 -33.907707 35.057480 3.000367 -31.819330 -12.584011 -10.303820 47.277454 4.883563 14.840620 -0.066073 -14.356347 6.678969 
19.325254 46.289806 -3.659044 -0.888672 -0.468750 -30.869143 0.000000 0.000000 0.000000 12.949218 6.572266 -13.427733 9.267578 7.851562 -11.425780 -9.814453 1.679688 36.962887 -20.107424 -7.675781 12.753908 -21.552734 -51.611328 -5.769372 -73.447266 -1.894531 -143.534821 161.845718 -160.683594 -6.018857 -9.287109 14.453126 12.294923 28.173830 -29.707033 12.143599 65.136719 0.810547 -5.761857 -18.623047 0.751953 17.089842 6.706349 0.830079 6.207926 25.640249 -5.949856 1.892581 -33.436501 33.919418 3.105974 -32.633820 -11.365937 -9.553788 43.908520 5.889195 13.861823 1.663576 -10.656085 7.730187 
19.009995 46.089394 -1.977300 -1.132813 -0.361328 -32.109379 0.000000 0.000000 0.000000 12.548828 7.255859 -14.383532 8.857422 8.955079 -10.185546 -9.785156 0.996094 37.158375 -21.171875 -7.158204 12.617188 -18.457031 -51.005859 -8.904073 -75.498047 -0.839844 -145.761658 161.142593 -162.070313 -5.012773 -10.380859 15.371093 12.050780 27.246092 -29.052736 11.376953 65.869141 -0.009766 -1.865233 -18.281250 0.449219 12.617188 11.879806 -0.702217 5.181207 19.614628 -6.270676 4.371011 -32.996571 32.844395 3.245659 -33.414570 -10.125799 -8.808569 40.509907 6.842167 12.752131 3.276915 -6.883873 8.680536 
18.558874 45.788269 -0.165263 -1.435547 -0.351563 -33.837887 0.000000 0.000000 0.000000 11.894530 8.007812 -14.863278 8.417969 10.058594 -9.158449 -9.238281 0.273438 37.177780 -21.728516 -6.386719 12.315539 -17.207031 -48.671875 -10.534678 -78.027344 0.029297 -147.910172 160.136719 -163.154297 -4.065331 -10.878906 16.699219 11.569459 26.025391 -26.523438 10.962438 66.904297 -0.986328 1.621262 -17.832031 0.566406 9.511817 14.074447 -1.667818 5.116055 19.934946 -6.420127 5.405900 -31.404886 31.327250 1.048155 -33.334976 -8.709119 -8.287090 39.935261 7.001857 12.986165 1.944030 -5.347360 7.245937 
18.107628 45.487270 1.646841 -1.738281 -0.351563 -35.556644 0.000000 0.000000 0.000000 11.240236 8.750001 -15.359840 7.988281 11.171874 -8.115234 -8.671875 -0.429688 37.187500 -22.294922 -5.625000 12.021483 -16.103516 -46.328125 -12.021483 -80.537109 0.986328 -150.019531 159.160172 -164.257813 -3.137417 -11.357421 18.027344 11.110258 24.824219 -24.003908 10.498047 67.988281 -1.894531 5.117510 -17.402344 0.722656 6.406374 16.263702 -2.634943 5.081687 20.274551 -6.503302 6.380492 -29.853264 29.767914 -1.068910 -33.247128 -7.303542 -7.712882 39.363152 7.203452 13.223186 0.613539 -3.729364 5.855515 
17.520145 45.158253 3.511010 -2.236328 -0.419922 -37.880859 0.000000 0.000000 0.000000 10.507813 9.365235 -15.086302 7.900391 12.128907 -7.380761 -8.037109 -1.074219 37.480377 -22.099609 -4.716797 11.611328 -16.572264 -42.773434 -11.842567 -83.183594 1.738281 -152.353516 159.072281 -164.814438 -2.385372 -11.113281 19.248047 10.556642 23.955078 -19.882813 10.318945 69.775391 -3.056641 8.291016 -17.294924 0.839844 3.974610 14.550989 -2.360281 6.788931 28.525293 -7.246913 4.945745 -21.323956 25.977705 -6.316407 -32.986992 -5.791102 -7.042408 40.882278 6.492074 14.303238 -1.937464 -5.506152 1.777657 
16.932539 44.829231 5.375166 -2.744141 -0.517578 -40.195404 0.000000 0.000000 0.000000 9.785157 9.990235 -14.822523 7.802734 13.066405 -6.640625 -7.402343 -1.728516 37.763378 -21.884766 -3.818359 11.191407 -17.031250 -39.218750 -11.676096 -85.800781 2.587891 -154.628906 158.974625 -165.390625 -1.633323 -10.849608 20.478516 9.967286 23.095701 -15.742188 10.097654 71.621094 -4.101563 11.513671 -17.187500 0.986328 1.533373 12.849852 -2.040330 8.502170 36.818161 -7.757071 3.377357 -13.494616 21.614426 -10.758383 -32.708439 -4.266693 -6.384891 42.357685 5.700392 15.349182 -4.648645 -7.078543 -2.428138 
16.352810 44.545246 7.074852 -3.388672 -0.683594 -43.701290 0.000000 0.000000 0.000000 9.560549 10.400393 -13.269720 8.193359 13.652343 -5.820313 -7.265625 -2.490235 38.740234 -20.478518 -3.154297 11.035156 -17.099609 -35.410156 -11.226361 -87.744141 3.281250 -157.373047 159.365234 -166.640625 -0.178040 -9.404297 21.552734 9.677735 22.998047 -9.716797 9.588196 73.496094 -5.195313 14.511719 -16.914064 0.556641 -0.908203 11.106091 -0.984289 10.959852 43.306198 -8.022551 1.961112 -5.950695 16.645935 -12.543388 -32.310867 -2.851333 -5.266960 44.761761 4.336493 17.384325 -7.542875 -9.011966 -4.987947 
15.773211 44.261391 8.774498 -4.023438 -0.898438 -47.226715 0.000000 0.000000 0.000000 9.345703 10.810548 -11.716919 8.613282 14.189453 -4.968309 -7.148438 -3.261719 39.707031 -19.072266 -2.490234 10.879331 -17.138672 -31.601561 -10.786365 -89.648438 4.062500 -160.087891 159.804688 -167.880859 1.267480 -7.949218 22.626951 9.381008 22.832031 -3.681641 9.071640 75.429688 -6.201172 17.539364 -16.621094 0.166016 -3.349610 9.418036 0.167052 13.344038 49.817673 -8.130172 0.572653 1.266695 11.553011 -13.642101 -31.885826 -1.405775 -4.172324 47.128132 2.881051 19.286194 -10.563787 -10.739696 -7.614780 
